<svg width="58" height="11" viewBox="0 0 58 11" fill="none" xmlns="http://www.w3.org/2000/svg">
<path d="M53.58 11C56.2488 11 57.64 9.21668 57.64 8.81565L55.6632 7.79718C55.6256 8.10334 54.9493 8.81565 53.58 8.81565C52.2107 8.81565 51.6192 7.88559 51.6192 7.45336V6.515H58V4.26825C58 3.0436 57.9139 2.21456 57.0388 1.23147C56.6622 0.853271 56.0797 0.509593 55.5431 0.293479C55.0065 0.0773655 54.239 0 53.58 0C52.6763 0 51.7223 0.222606 51.0916 0.582796C50.4609 0.942986 49.9941 1.36324 49.6552 1.95756C49.4481 2.31775 49.3627 2.68239 49.2874 3.15064C49.2121 3.61888 49.2874 4.19621 49.2874 4.75451V7.67201C49.2874 8.23031 49.6552 11 53.58 11ZM55.7198 4.66809H51.6237V3.61412C51.6237 3.09185 51.8747 2.8869 52.0608 2.68935C52.2469 2.4918 52.7687 2.16096 53.6717 2.16096C54.5747 2.16096 55.1251 2.4987 55.2911 2.68935C55.4572 2.88001 55.7198 3.09185 55.7198 3.61412V4.66809ZM53.58 11C56.2488 11 57.64 9.21668 57.64 8.81565L55.6632 7.79718C55.6256 8.10334 54.9493 8.81565 53.58 8.81565C52.2107 8.81565 51.6192 7.88559 51.6192 7.45336V6.515H58V4.26825C58 3.0436 57.9139 2.21456 57.0388 1.23147C56.6622 0.853271 56.0797 0.509593 55.5431 0.293479C55.0065 0.0773655 54.239 0 53.58 0C52.6763 0 51.7223 0.222606 51.0916 0.582796C50.4609 0.942986 49.9941 1.36324 49.6552 1.95756C49.4481 2.31775 49.3627 2.68239 49.2874 3.15064C49.2121 3.61888 49.2874 4.19621 49.2874 4.75451V7.67201C49.2874 8.23031 49.6552 11 53.58 11ZM55.7198 4.66809H51.6237V3.61412C51.6237 3.09185 51.8747 2.8869 52.0608 2.68935C52.2469 2.4918 52.7687 2.16096 53.6717 2.16096C54.5747 2.16096 55.1251 2.4987 55.2911 2.68935C55.4572 2.88001 55.7198 3.09185 55.7198 3.61412V4.66809ZM39.5873 0.44H41.9581C41.9581 2.89181 41.9581 4.17979 41.9581 4.30394C41.9581 4.49017 42.3621 5.55054 43.9603 5.55054C45.5585 5.55054 45.9588 4.44794 45.9588 4.30394C45.9588 4.20794 45.9588 2.91996 45.9588 0.44H48.3333V4.30394C48.2605 5.20951 47.9333 5.94538 47.3517 6.51155C46.77 7.07773 46.0341 7.45255 45.144 7.636V11H42.7934V7.636C41.8304 7.41571 41.0762 7.04089 40.5308 6.51155C39.9853 5.98222 39.6708 5.24634 39.5873 4.30394V0.44ZM33.7864 11C36.4552 11 37.8463 9.21668 37.8463 8.81565L35.8696 7.79718C35.8319 8.10334 35.1557 8.81565 33.7864 8.81565C32.4171 8.81565 31.8256 7.88559 31.8256 7.45336V6.515H38.2063V4.26825C38.2063 3.0436 38.1202 2.21456 37.2451 1.23147C36.8686 0.853271 36.286 0.509593 35.7494 0.293479C35.2129 0.0773655 34.4453 0 33.7864 0C32.8827 0 31.9286 0.222606 31.2979 0.582796C30.6672 0.942986 30.2004 1.36324 29.8615 1.95756C29.6544 2.31775 29.5691 2.68239 29.4938 3.15064C29.4185 3.61888 29.4938 4.19621 29.4938 4.75451V7.67201C29.4938 8.23031 29.8615 11 33.7864 11ZM35.9261 4.66809H31.83V3.61412C31.83 3.09185 32.0811 2.8869 32.2672 2.68935C32.4532 2.4918 32.9751 2.16096 33.8781 2.16096C34.7811 2.16096 35.3314 2.4987 35.4975 2.68935C35.6636 2.88001 35.9261 3.09185 35.9261 3.61412V4.66809ZM33.7864 11C36.4552 11 37.8463 9.21668 37.8463 8.81565L35.8696 7.79718C35.8319 8.10334 35.1557 8.81565 33.7864 8.81565C32.4171 8.81565 31.8256 7.88559 31.8256 7.45336V6.515H38.2063V4.26825C38.2063 3.0436 38.1202 2.21456 37.2451 1.23147C36.8686 0.853271 36.286 0.509593 35.7494 0.293479C35.2129 0.0773655 34.4453 0 33.7864 0C32.8827 0 31.9286 0.222606 31.2979 0.582796C30.6672 0.942986 30.2004 1.36324 29.8615 1.95756C29.6544 2.31775 29.5691 2.68239 29.4938 3.15064C29.4185 3.61888 29.4938 4.19621 29.4938 4.75451V7.67201C29.4938 8.23031 29.8615 11 33.7864 11ZM35.9261 4.66809H31.83V3.61412C31.83 3.09185 32.0811 2.8869 32.2672 2.68935C32.4532 2.4918 32.9751 2.16096 33.8781 2.16096C34.7811 2.16096 35.3314 2.4987 35.4975 2.68935C35.6636 2.88001 35.9261 3.09185 35.9261 3.61412V4.66809ZM23.7442 0C27.9306 0 28.5397 2.62815 28.5397 3.02134V10.3116C27.4191 10.7705 25.8971 11 23.9738 11C21.3839 11 19.9905 9.94769 19.7937 7.84306C19.8137 6.49431 20.4372 5.51069 21.664 4.89222C22.8908 4.27375 24.3891 4.23989 26.1589 4.79065C26.4811 2.92091 25.7527 1.98603 23.9738 1.98603C22.8866 1.98603 22.0705 2.28421 21.5256 2.88056L20.1788 1.57131C21.2476 0.523771 22.4361 0 23.7442 0ZM24.0802 6.19718C22.8735 6.19718 22.1231 6.90041 22.1231 7.68085C22.1231 9.03532 23.4821 9.45481 26.2002 8.93931V6.56148C25.5409 6.31862 24.8343 6.19718 24.0802 6.19718ZM14.453 11C17.1218 11 18.513 9.21668 18.513 8.81565L16.5362 7.79718C16.4986 8.10334 15.8223 8.81565 14.453 8.81565C13.0837 8.81565 12.4922 7.88559 12.4922 7.45336V6.515H18.873V4.26825C18.873 3.0436 18.7869 2.21456 17.9118 1.23147C17.5352 0.853271 16.9527 0.509593 16.4161 0.293479C15.8795 0.0773655 15.112 0 14.453 0C13.5493 0 12.5953 0.222606 11.9646 0.582796C11.3339 0.942986 10.8671 1.36324 10.5282 1.95756C10.3211 2.31775 10.2358 2.68239 10.1605 3.15064C10.0851 3.61888 10.1605 4.19621 10.1605 4.75451V7.67201C10.1605 8.23031 10.5282 11 14.453 11ZM16.5928 4.66809H12.4967V3.61412C12.4967 3.09185 12.7478 2.8869 12.9338 2.68935C13.1199 2.4918 13.6418 2.16096 14.5447 2.16096C15.4477 2.16096 15.9981 2.4987 16.1642 2.68935C16.3302 2.88001 16.5928 3.09185 16.5928 3.61412V4.66809ZM0.614814 0.44H8.28634L9.20635 1.85247L3.34809 8.83416H8.99523V11H0.94644L0 9.66679L5.86409 2.56948H0.614814V0.44Z" fill="#FE001A"/>
</svg>
