<svg width="64" height="64" viewBox="0 0 64 64" fill="none" xmlns="http://www.w3.org/2000/svg">
<g clip-path="url(#clip0_376_4)">
<path d="M58.6666 32C58.6666 39.0724 55.8571 45.8552 50.8561 50.8562C45.8551 55.8571 39.0724 58.6666 31.9999 58.6666C28.498 58.6666 25.0304 57.9769 21.795 56.6368C18.5597 55.2966 15.62 53.3324 13.1437 50.8562C8.14277 45.8552 5.33325 39.0724 5.33325 32C5.33325 24.9275 8.14277 18.1448 13.1437 13.1438C18.1447 8.14283 24.9275 5.33331 31.9999 5.33331C35.5018 5.33331 38.9695 6.02307 42.2048 7.36319C45.4402 8.70332 48.3799 10.6676 50.8561 13.1438C53.3323 15.62 55.2966 18.5597 56.6367 21.7951C57.9768 25.0304 58.6666 28.4981 58.6666 32ZM26.6666 48L42.6666 32L26.6666 16L22.9333 19.7333L35.1999 32L22.9333 44.2666L26.6666 48Z" fill="#FE001A"/>
</g>
<defs>
<clipPath id="clip0_376_4">
<rect width="64" height="64" fill="white"/>
</clipPath>
</defs>
</svg>
