<svg width="62" height="39" viewBox="0 0 62 39" fill="none" xmlns="http://www.w3.org/2000/svg">
<path fill-rule="evenodd" clip-rule="evenodd" d="M24 7C24 10.866 20.866 14 17 14C13.134 14 10 10.866 10 7C10 3.13401 13.134 0 17 0C20.866 0 24 3.13401 24 7ZM34 5C34 3.34315 32.6569 2 31 2C29.3431 2 28 3.34315 28 5V8C28 12.9706 23.9706 17 19 17H17H12C5.37258 17 0 22.3726 0 29V34C0 35.6569 1.34315 37 3 37C4.65685 37 6 35.6569 6 34V29C6 27.223 6.7725 25.6264 8 24.5278V37C8 38.1046 8.89543 39 10 39H24C25.1046 39 26 38.1046 26 37V21.2699C27.9661 20.2306 29.6734 18.7672 31 17.0015C32.3266 18.7672 34.0339 20.2306 36 21.2699V37C36 38.1046 36.8954 39 38 39H52C53.1046 39 54 38.1046 54 37V24.5278C55.2275 25.6264 56 27.223 56 29V34C56 35.6569 57.3431 37 59 37C60.6569 37 62 35.6569 62 34V29C62 22.3726 56.6274 17 50 17H45H43C38.0294 17 34 12.9706 34 8V5ZM38 7C38 10.866 41.134 14 45 14C48.866 14 52 10.866 52 7C52 3.13401 48.866 0 45 0C41.134 0 38 3.13401 38 7Z" fill="#EE0202"/>
</svg>
